# xmcd CD database file
#
# Track frame offsets:
#	150
#	17172
#	34749
#	46917
#	60762
#	77036
#
# Disc length: 1260 seconds
#
# Revision: 1
# Processed by: cddbd v1.5.2PL0 Copyright (c) Steve Scherf et al.
# Submitted via: CDex 1.51
#
DISCID=3b04ea06
DTITLE=Angel at my Table - In a Heartbeat
DYEAR=2012
DGENRE=Blues
TTITLE0=Eclipse
TTITLE1=Silverlight
TTITLE2=Picture Perfect
TTITLE3=Chasing Tides
TTITLE4=A New Dawn
TTITLE5=Little Monster
EXTD=YEAR: 2012
EXTT0=
EXTT1=
EXTT2=
EXTT3=
EXTT4=
EXTT5=
PLAYORDER=
